<svg width="247" height="55" viewBox="0 0 247 55" fill="none" xmlns="http://www.w3.org/2000/svg">
<g clip-path="url(#clip0)">
<path fill-rule="evenodd" clip-rule="evenodd" d="M28.497 7.37951L23.5811 11.5831C22.9426 10.1361 21.9062 8.90347 20.5944 8.031C19.2826 7.15852 17.7502 6.68268 16.1785 6.65971C10.748 6.65971 7.60405 8.73271 7.60405 14.8654V23.5029C7.60405 25.8062 8.54723 31.8813 14.6922 31.8813C16.4528 31.8756 18.1832 31.4211 19.7224 30.5603C21.2617 29.6994 22.5596 28.4602 23.4953 26.9579L28.7257 30.96C27.2539 33.3205 25.2018 35.258 22.7681 36.5847C20.3345 37.9114 17.6018 38.5822 14.8351 38.5322C12.9144 38.6513 10.9899 38.3696 9.18224 37.7046C7.3746 37.0397 5.72275 36.0059 4.33018 34.6679C2.9376 33.3299 1.83432 31.7167 1.08944 29.9292C0.344568 28.1418 -0.0258477 26.2187 0.00140132 24.2803C0.00140132 18.0613 0.20147 19.2129 0.20147 13.1379C0.331675 9.78553 1.69863 6.6027 4.035 4.21187C6.37136 1.82103 9.50906 0.394168 12.8344 0.21035C15.8567 -0.295593 18.96 0.116002 21.7493 1.39271C24.5385 2.66942 26.8875 4.75348 28.497 7.37951Z" fill="#5E2E27"/>
<path fill-rule="evenodd" clip-rule="evenodd" d="M47.5302 0H51.3601C54.7613 0.0228334 58.015 1.40189 60.4093 3.83542C62.8036 6.26895 64.1436 9.55879 64.136 12.9851V25.2504C64.136 28.6767 62.7888 31.9634 60.3891 34.3916C57.9894 36.8197 54.7327 38.1915 51.3315 38.2067H47.5302C44.1313 38.1839 40.8789 36.8097 38.4808 34.3832C36.0828 31.9567 34.7332 28.6743 34.7257 25.2504V12.9851C34.7332 9.56113 36.0828 6.27872 38.4808 3.85222C40.8789 1.42573 44.1313 0.0515545 47.5302 0.0287869V0ZM48.0446 6.50694C46.1479 6.72475 44.4109 7.68065 43.2041 9.17066C41.9973 10.6607 41.4164 12.5668 41.5852 14.4823V23.6956C41.4164 25.6111 41.9973 27.5172 43.2041 29.0072C44.4109 30.4972 46.1479 31.4531 48.0446 31.6709H50.9028C52.7994 31.4531 54.5365 30.4972 55.7433 29.0072C56.9501 27.5172 57.531 25.6111 57.3622 23.6956V14.4823C57.531 12.5668 56.9501 10.6607 55.7433 9.17066C54.5365 7.68065 52.7994 6.72475 50.9028 6.50694H48.0446Z" fill="#5E2E27"/>
<path fill-rule="evenodd" clip-rule="evenodd" d="M70.1741 0H77.5767C77.5767 0 77.5767 16.9296 77.5767 21.1332C77.5767 25.3368 79.2058 31.1239 84.8935 31.1239C90.5812 31.1239 92.8391 28.5039 92.8391 21.3347V0.230328H100.27V37.4581H93.7823V34.0895C90.6716 36.5179 86.8567 37.8528 82.9214 37.89C79.4693 37.7698 76.2014 36.2918 73.8184 33.7728C71.4355 31.2539 70.1272 27.8947 70.1741 24.4154C70.1741 16.6129 70.0884 0 70.1741 0Z" fill="#5E2E27"/>
<path fill-rule="evenodd" clip-rule="evenodd" d="M106.27 0.623644V52.7943H114.302V35.5193C114.302 35.5193 115.959 38.1393 123.276 38.1393C126.709 38.1153 130.004 36.7736 132.489 34.3878C134.975 32.0019 136.463 28.7513 136.652 25.2982V12.6586C136.652 8.97326 133.537 0.450891 125.22 0.0478066C116.903 -0.355278 114.502 1.86169 113.473 4.02107V0.508474H106.356L106.27 0.623644ZM120.132 6.20924H123.791C125.687 6.42706 127.424 7.38297 128.631 8.87298C129.838 10.363 130.419 12.2691 130.25 14.1846V23.3979C130.419 25.3134 129.838 27.2195 128.631 28.7095C127.424 30.1995 125.687 31.1554 123.791 31.3733H120.132C118.236 31.1554 116.499 30.1995 115.292 28.7095C114.085 27.2195 113.504 25.3134 113.673 23.3979V14.1846C113.496 12.2644 114.073 10.3509 115.281 8.85456C116.489 7.35821 118.23 6.39821 120.132 6.18046V6.20924Z" fill="#E52330"/>
<path fill-rule="evenodd" clip-rule="evenodd" d="M144.928 4.00364L147.958 9.0422C150.661 7.32267 153.88 6.61916 157.047 7.05557C158.058 7.03925 159.061 7.24205 159.988 7.65024C160.915 8.05844 161.744 8.66248 162.419 9.42148C163.094 10.1805 163.599 11.0767 163.9 12.0495C164.201 13.0222 164.291 14.0488 164.164 15.0597C161.59 13.4834 158.594 12.7492 155.589 12.9579C152.905 12.8763 150.263 13.6431 148.033 15.1509C145.803 16.6586 144.098 18.8316 143.156 21.3651C142.013 26.0006 142.099 36.8263 151.302 38.6402C160.505 40.454 164.764 35.3867 164.764 35.3867V38.8705H171.023V12.3245C171.023 -0.919746 152.76 -3.16551 144.814 4.03244L144.928 4.00364ZM156.104 18.9754H157.047C158.707 18.9754 160.299 19.6397 161.473 20.8222C162.647 22.0047 163.306 23.6085 163.306 25.2808V26.5476C163.306 28.2199 162.647 29.8237 161.473 31.0062C160.299 32.1887 158.707 32.853 157.047 32.853H156.104C154.446 32.8454 152.858 32.1787 151.686 30.9978C150.514 29.817 149.852 28.2176 149.844 26.5476V25.2808C149.844 23.6085 150.504 22.0047 151.678 20.8222C152.852 19.6397 154.444 18.9754 156.104 18.9754Z" fill="#FBBC43"/>
<path fill-rule="evenodd" clip-rule="evenodd" d="M207.034 37.9019H199.574C199.574 37.9019 199.574 20.9723 199.574 16.7687C199.574 12.5651 197.945 6.77796 192.257 6.77796C186.569 6.77796 184.312 10.7224 184.312 17.4885V37.6427H177.023V0.443767H183.397V3.81241C183.397 3.81241 185.426 -0.247229 193.458 0.0118974C195.243 -0.0637966 197.026 0.231391 198.694 0.879119C200.361 1.52685 201.879 2.51327 203.153 3.77705C204.426 5.04082 205.427 6.55494 206.095 8.22527C206.763 9.8956 207.082 11.6864 207.034 13.4864C207.034 21.2602 207.034 37.9019 207.034 37.9019Z" fill="#C7CD1D"/>
<path fill-rule="evenodd" clip-rule="evenodd" d="M236.794 2.94017C237.918 1.59535 239.439 0.646856 241.135 0.232614C242.832 -0.181628 244.615 -0.0400333 246.226 0.636818V6.22243C245.196 5.87542 244.094 5.80174 243.028 6.00852C241.962 6.2153 240.966 6.69555 240.138 7.40289C240.992 9.20135 241.441 11.1677 241.453 13.1612C241.537 16.5221 240.298 19.7802 238.006 22.2239C235.714 24.6677 232.555 26.0985 229.22 26.2039C224.932 26.2039 223.503 26.4918 219.673 31.9623C219.073 33.114 220.131 32.6533 220.131 32.6533C225.03 31.0545 230.25 30.7276 235.308 31.7031C238.035 32.201 240.517 33.6067 242.357 35.6949C244.196 37.7831 245.287 40.4329 245.454 43.2199C245.625 49.3525 236.308 54.9669 236.308 54.9669L233.107 49.5828C236.165 46.4733 240.252 44.4003 236.365 40.1103C232.478 35.8204 222.903 38.1525 218.416 39.1602C213.929 40.1679 212.928 35.2445 213.328 31.5304C213.695 29.9896 214.365 28.5385 215.297 27.2627C216.23 25.9869 217.407 24.9122 218.759 24.1021C216.987 22.8789 215.539 21.2367 214.542 19.3194C213.546 17.402 213.031 15.2679 213.043 13.1037C212.958 9.74278 214.197 6.48469 216.489 4.04095C218.781 1.59721 221.94 0.166395 225.275 0.0609908H229.248C231.974 0.0754562 234.611 1.04215 236.708 2.7962L236.794 2.94017ZM226.819 6.16484C224.983 6.07844 223.187 6.72562 221.823 7.96568C220.458 9.20574 219.634 10.9384 219.531 12.787V14.1114C219.634 15.9599 220.458 17.6926 221.823 18.9326C223.187 20.1727 224.983 20.8199 226.819 20.7335H227.934C229.769 20.8199 231.565 20.1727 232.93 18.9326C234.295 17.6926 235.118 15.9599 235.222 14.1114V12.787C235.118 10.9384 234.295 9.20574 232.93 7.96568C231.565 6.72562 229.769 6.07844 227.934 6.16484H226.819Z" fill="#61BFE6"/>
</g>
<defs>
<clipPath id="clip0">
<rect width="246.226" height="54.9669" fill="white"/>
</clipPath>
</defs>
</svg>
