<svg width="45" height="50" viewBox="0 0 45 50" fill="none" xmlns="http://www.w3.org/2000/svg">
<g clip-path="url(#clip0)">
<rect width="45" height="50" fill="#000"/>
<rect width="45.2381" height="50" fill="#000"/>
<path d="M27 31.597V32H17V31.583C16.996 30.471 17.044 29.836 18.324 29.54C19.726 29.216 21.111 28.927 20.445 27.699C18.473 24.062 19.883 22 22 22C24.077 22 25.521 23.985 23.556 27.699C22.909 28.919 24.244 29.209 25.677 29.54C26.961 29.837 27.005 30.476 27 31.597V31.597ZM26 17V19H29V35H15V19H18V17H13V37H31V17H26V17ZM20 13V19H24V13H20ZM22 17C21.447 17 21 16.552 21 16C21 15.448 21.447 15 22 15C22.553 15 23 15.448 23 16C23 16.552 22.553 17 22 17Z" fill="#78777c"/>
</g>
<defs>
<clipPath id="clip0">
<rect width="45" height="50" fill="#000"/>
</clipPath>
</defs>
</svg>
